<svg width="40" height="40" viewBox="0 0 24 24" fill="#00FFFF" xmlns="http://www.w3.org/2000/svg">
  <path
    d="M9.29346 11.9751L13.6467 16.3283C13.8167 16.4982 13.8974 16.6972 13.8891 16.9251C13.8808 17.153 13.7917 17.3519 13.6217 17.5218C13.4518 17.6917 13.2487 17.7767 13.0125 17.7767C12.7763 17.7767 12.5732 17.6917 12.4032 17.5218L7.45924 12.5778C7.36792 12.4865 7.30161 12.3912 7.26031 12.2919C7.21901 12.1926 7.19836 12.087 7.19836 11.9751C7.19836 11.8631 7.21901 11.7575 7.26031 11.6582C7.30161 11.5589 7.36792 11.4637 7.45924 11.3723L12.4282 6.40331C12.5982 6.2334 12.8013 6.14844 13.0375 6.14844C13.2737 6.14844 13.4768 6.2334 13.6467 6.40331C13.8167 6.57325 13.9016 6.77633 13.9016 7.01256C13.9016 7.2488 13.8167 7.45188 13.6467 7.62181L9.29346 11.9751Z"
  />
</svg>
  